<svg id="svg" version="1.1" xmlns="http://www.w3.org/2000/svg" xmlns:xlink="http://www.w3.org/1999/xlink" width="400" height="400" viewBox="0, 0, 400,400"><g id="svgg"><path id="path0" d="M307.683 125.677 C 307.332 126.028,303.977 126.134,294.903 126.081 C 252.202 125.829,94.997 126.043,94.686 126.354 C 94.480 126.560,94.458 127.307,94.636 128.060 C 94.810 128.797,94.915 129.545,94.869 129.722 C 94.732 130.251,95.757 131.400,96.367 131.400 C 96.679 131.400,96.961 131.770,96.994 132.222 C 97.028 132.674,97.987 133.981,99.127 135.127 C 100.267 136.273,101.200 137.376,101.200 137.578 C 101.200 137.781,101.555 138.059,101.989 138.197 C 102.424 138.334,103.010 138.929,103.293 139.519 C 103.575 140.108,104.165 140.657,104.603 140.738 C 105.961 140.990,106.485 141.673,106.245 142.875 C 106.068 143.762,106.224 144.129,106.997 144.635 C 107.535 144.987,108.469 146.057,109.073 147.013 C 110.073 148.593,111.385 149.600,112.442 149.600 C 112.665 149.600,112.737 149.422,112.603 149.205 C 112.461 148.975,112.628 148.913,113.002 149.056 C 113.356 149.192,113.550 149.552,113.434 149.856 C 113.317 150.161,113.532 150.911,113.911 151.523 C 116.032 154.950,116.531 155.600,117.040 155.600 C 117.348 155.600,117.600 155.871,117.600 156.203 C 117.600 156.534,118.050 157.197,118.600 157.675 C 119.150 158.153,119.600 158.744,119.600 158.989 C 119.600 159.544,122.766 162.606,123.662 162.916 C 124.027 163.043,124.443 163.685,124.588 164.344 C 124.732 165.002,125.289 165.829,125.825 166.180 C 126.361 166.531,126.800 167.084,126.800 167.409 C 126.800 167.734,126.978 168.000,127.196 168.000 C 127.414 168.000,127.999 168.628,128.496 169.395 C 129.520 170.975,130.000 171.168,130.000 170.000 C 130.000 169.560,130.194 169.200,130.432 169.200 C 130.699 169.200,130.768 169.637,130.612 170.344 C 130.243 172.025,133.643 176.517,134.577 175.583 C 134.787 175.373,135.374 175.200,135.880 175.200 C 136.965 175.200,137.129 176.271,136.153 176.985 C 135.334 177.584,136.270 179.688,137.696 180.451 C 138.931 181.112,139.042 181.246,141.249 184.700 C 142.019 185.905,142.466 186.191,143.342 186.033 C 143.922 185.929,144.800 186.861,144.800 187.581 C 144.800 188.578,146.600 189.464,147.353 188.839 C 147.774 188.489,150.503 188.372,157.267 188.413 C 173.745 188.513,174.248 188.495,174.957 187.786 C 175.785 186.958,175.783 184.651,174.952 183.384 C 174.440 182.601,174.394 182.167,174.734 181.298 C 175.260 179.954,175.287 174.110,174.772 173.147 C 174.534 172.702,174.543 172.359,174.799 172.201 C 176.536 171.127,174.599 168.677,172.374 169.132 C 171.618 169.287,167.176 169.350,162.502 169.272 L 154.004 169.130 153.316 167.965 C 152.937 167.324,152.462 166.800,152.260 166.800 C 151.737 166.800,150.000 164.855,150.000 164.269 C 150.000 162.892,145.907 159.528,144.542 159.784 C 143.166 160.043,142.711 159.449,143.601 158.559 C 144.146 158.014,142.392 155.664,141.632 155.920 C 141.141 156.086,141.141 156.028,141.632 155.496 C 142.006 155.091,142.359 155.010,142.664 155.260 C 142.961 155.502,143.222 155.487,143.388 155.219 C 143.531 154.989,143.937 154.800,144.292 154.800 C 144.647 154.800,145.233 154.532,145.596 154.204 C 146.440 153.440,148.572 153.375,166.700 153.567 C 180.005 153.708,181.200 153.777,181.200 154.399 C 181.200 155.931,182.413 157.644,183.049 157.008 C 183.514 156.544,183.798 156.517,184.382 156.882 C 185.336 157.477,184.848 159.010,183.300 160.285 C 182.215 161.178,182.129 161.815,182.477 166.400 C 182.503 166.730,182.380 186.648,182.206 210.661 C 181.887 254.646,181.960 258.000,183.240 258.000 C 183.387 258.000,183.994 258.997,184.590 260.215 C 185.825 262.740,186.705 263.449,189.070 263.826 C 190.137 263.996,190.672 264.267,190.553 264.577 C 190.451 264.844,190.584 265.588,190.848 266.231 C 191.113 266.874,191.302 267.529,191.269 267.687 C 191.236 267.845,192.170 268.943,193.345 270.128 C 194.521 271.312,195.903 273.031,196.418 273.947 C 197.256 275.438,199.425 277.200,200.423 277.200 C 201.149 277.200,200.792 276.091,200.000 275.884 C 198.932 275.605,198.955 274.400,200.029 274.400 C 200.484 274.400,201.129 274.672,201.461 275.004 C 202.115 275.658,204.325 274.530,204.461 273.473 C 204.494 273.213,204.542 272.793,204.566 272.539 C 204.613 272.061,205.521 271.046,210.136 266.315 C 212.688 263.699,212.855 263.419,212.618 262.155 C 212.461 261.317,212.523 260.800,212.782 260.800 C 213.012 260.800,213.200 261.070,213.200 261.400 C 213.200 261.730,213.403 262.000,213.650 262.000 C 213.928 262.000,214.015 261.577,213.879 260.893 C 213.554 259.270,214.775 257.744,215.911 258.353 C 217.040 258.957,217.101 258.935,217.208 257.900 C 217.259 257.405,217.365 234.231,217.444 206.402 C 217.554 167.606,217.699 155.767,218.066 155.645 C 218.329 155.557,218.932 155.067,219.406 154.556 C 220.185 153.715,220.662 153.616,224.434 153.518 C 230.969 153.347,255.973 153.615,256.619 153.863 C 257.592 154.236,256.914 157.987,255.871 157.997 C 254.464 158.010,253.802 160.561,255.200 160.584 C 255.951 160.596,256.234 160.844,256.338 161.581 C 256.447 162.351,256.361 162.473,255.938 162.148 C 254.521 161.060,250.400 163.173,250.400 164.987 C 250.400 165.799,247.774 168.800,247.064 168.800 C 246.623 168.800,245.949 169.084,245.565 169.432 C 244.987 169.954,244.707 169.978,243.946 169.571 C 243.255 169.201,240.881 169.140,234.439 169.327 C 224.439 169.616,224.371 169.640,225.195 172.582 C 225.646 174.194,225.628 174.506,225.046 175.149 C 224.634 175.605,224.390 176.545,224.400 177.640 C 224.409 178.608,224.415 180.992,224.414 182.937 C 224.410 188.520,224.900 188.829,233.400 188.602 C 236.260 188.526,242.394 188.419,247.032 188.365 L 255.463 188.268 255.962 187.141 C 256.236 186.522,256.934 185.786,257.513 185.507 C 258.092 185.228,258.676 184.550,258.810 184.000 C 258.964 183.366,259.292 183.041,259.706 183.113 C 260.409 183.234,261.292 181.920,261.359 180.650 C 261.386 180.128,261.713 179.843,262.337 179.797 C 263.528 179.710,264.062 178.905,263.877 177.477 C 263.752 176.508,263.893 176.321,264.902 176.120 C 265.856 175.929,266.039 175.719,265.898 174.979 C 265.784 174.382,265.891 174.137,266.211 174.260 C 266.478 174.362,266.804 174.166,266.936 173.823 C 267.067 173.480,267.430 173.200,267.741 173.200 C 268.423 173.200,270.913 170.516,271.771 168.855 C 272.110 168.200,272.931 167.277,273.594 166.804 C 274.439 166.203,274.800 165.613,274.800 164.837 C 274.800 163.943,275.105 163.581,276.373 162.964 C 277.237 162.544,278.258 161.660,278.641 161.000 C 279.024 160.340,279.580 159.654,279.877 159.475 C 280.174 159.297,280.312 158.982,280.185 158.775 C 280.057 158.569,280.160 158.400,280.413 158.400 C 281.126 158.400,285.840 153.345,286.579 151.788 C 286.941 151.025,287.409 150.400,287.619 150.400 C 287.828 150.400,288.000 150.111,288.000 149.757 C 288.000 149.370,288.223 149.200,288.561 149.330 C 289.693 149.764,292.752 145.506,291.978 144.574 C 291.721 144.264,291.615 143.738,291.743 143.405 C 291.870 143.072,291.801 142.800,291.587 142.800 C 291.374 142.800,291.200 142.598,291.200 142.351 C 291.200 142.044,291.393 142.062,291.810 142.408 C 292.145 142.686,292.532 142.801,292.670 142.663 C 292.808 142.525,293.141 142.714,293.411 143.082 C 293.849 143.682,293.970 143.618,294.559 142.480 C 294.921 141.780,295.685 140.901,296.256 140.526 L 297.296 139.845 296.358 139.085 C 295.757 138.599,295.388 137.836,295.333 136.963 C 295.236 135.446,295.745 135.177,296.400 136.400 C 296.635 136.840,297.092 137.200,297.414 137.200 C 297.736 137.200,298.000 137.380,298.000 137.600 C 298.000 138.278,298.773 138.043,299.504 137.143 C 299.887 136.671,300.528 135.996,300.929 135.643 C 302.420 134.329,303.942 131.702,303.480 131.240 C 303.160 130.920,303.335 130.800,304.120 130.800 C 305.255 130.800,305.480 130.440,304.783 129.743 C 304.143 129.103,305.427 128.159,306.137 128.748 C 306.771 129.274,307.200 128.950,307.200 127.947 C 307.200 127.552,307.560 127.035,308.000 126.800 C 308.440 126.565,308.800 126.108,308.800 125.786 C 308.800 125.077,308.329 125.031,307.683 125.677 M298.600 132.800 C 298.600 133.093,298.375 133.408,298.100 133.500 C 297.803 133.599,297.600 133.316,297.600 132.800 C 297.600 132.284,297.803 132.001,298.100 132.100 C 298.375 132.192,298.600 132.507,298.600 132.800 M149.305 155.487 C 149.914 155.579,150.814 155.577,151.305 155.482 C 151.797 155.387,151.300 155.311,150.200 155.314 C 149.100 155.317,148.697 155.395,149.305 155.487 M159.300 155.499 C 162.325 155.567,167.275 155.567,170.300 155.499 C 173.325 155.431,170.850 155.375,164.800 155.375 C 158.750 155.375,156.275 155.431,159.300 155.499 M234.707 155.490 C 235.426 155.579,236.506 155.577,237.107 155.486 C 237.708 155.395,237.120 155.322,235.800 155.324 C 234.480 155.326,233.988 155.401,234.707 155.490 M247.312 155.495 C 248.364 155.577,249.984 155.576,250.912 155.492 C 251.840 155.408,250.980 155.341,249.000 155.342 C 247.020 155.343,246.260 155.412,247.312 155.495 M253.946 165.236 C 255.156 166.363,254.833 167.031,253.160 166.863 C 251.437 166.689,251.374 166.614,251.926 165.402 C 252.482 164.183,252.789 164.158,253.946 165.236 M141.221 180.600 C 141.190 181.194,140.295 181.085,140.087 180.462 C 139.975 180.125,140.158 179.975,140.575 180.062 C 140.942 180.138,141.233 180.380,141.221 180.600 M229.400 184.828 C 229.400 185.137,229.085 185.450,228.700 185.524 C 228.011 185.657,227.725 184.808,228.275 184.258 C 228.694 183.839,229.400 184.196,229.400 184.828 " stroke="none" fill="#fcfcfc" fill-rule="evenodd"></path><path id="path1" d="M101.200 124.821 C 92.236 125.063,92.643 125.023,93.012 125.619 C 93.190 125.908,93.443 125.896,93.820 125.584 C 94.227 125.246,121.745 125.158,200.972 125.243 C 259.604 125.306,307.701 125.232,307.855 125.079 C 308.192 124.741,314.450 124.765,201.600 124.674 C 150.890 124.633,105.710 124.699,101.200 124.821 M91.029 125.429 C 90.116 126.341,90.257 127.165,91.400 127.600 C 91.950 127.809,92.400 128.165,92.400 128.390 C 92.400 128.616,92.657 128.800,92.971 128.800 C 93.285 128.800,93.624 129.115,93.724 129.500 C 93.887 130.123,93.912 130.126,93.954 129.529 C 94.004 128.795,92.219 127.200,91.346 127.200 C 91.046 127.200,90.800 126.908,90.800 126.551 C 90.800 125.992,90.893 125.978,91.469 126.451 C 92.065 126.939,92.114 126.903,91.912 126.119 C 91.786 125.630,91.888 125.155,92.142 125.051 C 92.476 124.914,92.472 124.855,92.129 124.832 C 91.869 124.814,91.374 125.083,91.029 125.429 M308.119 127.290 C 307.231 128.438,307.143 128.938,307.981 128.074 C 308.476 127.564,308.798 127.065,308.697 126.964 C 308.596 126.863,308.336 127.010,308.119 127.290 M305.549 130.500 C 304.886 131.215,303.971 132.340,303.517 133.000 C 303.055 133.673,303.416 133.409,304.339 132.400 C 305.245 131.410,306.290 130.285,306.663 129.900 C 307.035 129.515,307.208 129.200,307.047 129.200 C 306.887 129.200,306.212 129.785,305.549 130.500 M95.800 132.400 C 96.198 132.840,96.592 133.200,96.676 133.200 C 96.760 133.200,96.635 132.840,96.400 132.400 C 96.165 131.960,95.770 131.600,95.524 131.600 C 95.278 131.600,95.402 131.960,95.800 132.400 M97.501 134.200 C 97.741 134.640,98.711 135.720,99.658 136.600 C 101.426 138.243,100.855 137.429,98.432 134.854 C 97.680 134.054,97.261 133.760,97.501 134.200 M301.700 135.177 C 301.205 135.590,300.800 136.036,300.800 136.168 C 300.800 136.566,302.370 135.455,302.580 134.909 C 302.829 134.260,302.783 134.274,301.700 135.177 M298.800 138.333 C 298.800 138.590,298.665 138.779,298.500 138.753 C 297.767 138.637,297.200 138.832,297.200 139.200 C 297.200 139.759,297.712 139.699,298.623 139.033 C 299.050 138.721,299.264 138.331,299.099 138.166 C 298.935 138.001,298.800 138.077,298.800 138.333 M101.200 138.617 C 101.200 138.737,101.650 139.320,102.200 139.913 C 102.750 140.507,103.200 140.803,103.200 140.571 C 103.200 140.340,102.833 139.757,102.384 139.275 C 101.576 138.407,101.200 138.199,101.200 138.617 M104.370 141.742 C 105.418 142.886,105.600 142.990,105.600 142.446 C 105.600 142.251,105.105 141.775,104.500 141.388 L 103.400 140.685 104.370 141.742 M295.798 141.602 C 294.728 142.784,295.301 142.970,296.401 141.798 C 296.917 141.249,297.156 140.800,296.932 140.800 C 296.707 140.800,296.197 141.161,295.798 141.602 M105.501 143.800 C 105.741 144.240,106.711 145.320,107.658 146.200 C 109.426 147.843,108.855 147.029,106.432 144.454 C 105.680 143.654,105.261 143.360,105.501 143.800 M293.600 144.146 C 293.600 144.446,293.225 145.211,292.766 145.846 C 292.176 146.663,292.293 146.596,293.166 145.615 C 294.446 144.179,294.685 143.600,294.000 143.600 C 293.780 143.600,293.600 143.846,293.600 144.146 M289.400 149.600 C 288.768 150.260,288.014 150.800,287.725 150.800 C 287.436 150.800,287.200 151.089,287.200 151.442 C 287.200 151.796,286.647 152.831,285.971 153.742 L 284.742 155.400 286.071 153.816 C 286.802 152.945,288.190 151.370,289.155 150.316 C 291.066 148.229,291.263 147.656,289.400 149.600 M112.311 151.023 C 112.800 151.365,113.200 151.983,113.200 152.395 C 113.200 152.808,113.785 153.548,114.500 154.041 L 115.800 154.936 114.781 153.768 C 114.220 153.126,113.515 152.105,113.213 151.500 C 112.912 150.895,112.385 150.400,112.043 150.400 C 111.596 150.400,111.671 150.574,112.311 151.023 M224.292 154.037 C 223.902 154.264,223.694 154.629,223.830 154.849 C 223.979 155.089,224.260 155.007,224.538 154.643 C 224.792 154.310,225.810 153.971,226.800 153.889 L 228.600 153.740 226.800 153.682 C 225.810 153.650,224.681 153.810,224.292 154.037 M147.800 154.291 C 145.094 154.676,146.245 155.056,150.207 155.085 C 153.774 155.111,154.356 155.029,153.965 154.558 C 153.511 154.011,150.637 153.887,147.800 154.291 M178.961 154.463 C 178.765 154.780,178.947 154.855,179.538 154.700 C 180.095 154.555,180.555 154.710,180.831 155.137 C 181.213 155.727,181.235 155.720,181.030 155.067 C 180.904 154.664,180.800 154.259,180.800 154.167 C 180.800 153.784,179.224 154.037,178.961 154.463 M229.052 154.591 C 229.254 155.117,230.699 155.288,230.988 154.819 C 231.100 154.638,230.672 154.413,230.037 154.320 C 229.304 154.213,228.945 154.311,229.052 154.591 M238.400 154.400 C 233.334 154.545,231.897 154.684,233.200 154.905 C 235.845 155.353,253.400 155.088,253.400 154.600 C 253.400 154.151,249.106 154.094,238.400 154.400 M254.800 154.402 C 253.854 154.703,253.870 154.722,255.100 154.760 C 256.605 154.806,256.628 154.866,255.716 156.314 L 255.031 157.400 255.933 156.622 C 257.535 155.240,256.785 153.771,254.800 154.402 M157.700 154.694 C 158.745 154.776,160.455 154.776,161.500 154.694 C 162.545 154.612,161.690 154.544,159.600 154.544 C 157.510 154.544,156.655 154.612,157.700 154.694 M220.800 154.800 C 222.236 155.260,222.884 155.260,222.600 154.800 C 222.464 154.580,221.778 154.418,221.076 154.440 C 219.857 154.478,219.845 154.494,220.800 154.800 M143.594 155.611 C 143.144 156.452,143.174 156.491,146.755 159.735 C 147.698 160.589,147.703 160.589,147.155 159.757 C 146.850 159.293,146.032 158.436,145.338 157.853 C 143.994 156.724,143.900 155.397,145.141 155.068 C 145.595 154.947,145.525 154.878,144.914 154.846 C 144.400 154.819,143.846 155.140,143.594 155.611 M218.627 155.570 C 218.244 155.994,218.015 156.669,218.119 157.070 C 218.293 157.745,218.311 157.742,218.354 157.031 C 218.379 156.609,218.698 155.934,219.062 155.531 C 219.426 155.129,219.634 154.800,219.524 154.800 C 219.414 154.800,219.010 155.147,218.627 155.570 M116.391 156.388 C 116.857 157.041,117.442 157.702,117.691 157.856 C 117.941 158.011,117.641 157.476,117.025 156.668 C 115.688 154.915,115.184 154.692,116.391 156.388 M181.503 159.296 C 181.713 162.690,181.931 163.120,181.962 160.200 C 181.976 158.880,181.844 157.573,181.668 157.296 C 181.492 157.020,181.418 157.920,181.503 159.296 M119.200 159.436 C 119.200 159.911,126.057 167.677,126.279 167.454 C 126.433 167.300,125.624 166.353,122.542 163.075 C 121.694 162.173,120.595 160.897,120.100 160.240 C 119.605 159.582,119.200 159.221,119.200 159.436 M278.602 161.823 C 277.735 162.800,276.816 163.600,276.560 163.600 C 276.303 163.600,275.982 163.915,275.846 164.300 C 275.711 164.685,275.498 165.270,275.375 165.600 C 275.239 165.962,275.391 165.901,275.757 165.448 C 276.091 165.034,277.295 163.721,278.431 162.530 C 279.568 161.339,280.426 160.293,280.338 160.205 C 280.250 160.117,279.469 160.845,278.602 161.823 M148.726 161.912 C 149.316 162.524,149.876 162.974,149.968 162.911 C 150.199 162.755,148.335 160.800,147.956 160.800 C 147.788 160.800,148.135 161.301,148.726 161.912 M218.146 164.600 C 218.147 166.800,218.214 167.649,218.295 166.487 C 218.376 165.324,218.376 163.524,218.293 162.487 C 218.211 161.449,218.145 162.400,218.146 164.600 M249.600 164.050 C 247.519 166.728,245.789 168.108,244.690 167.968 C 243.549 167.822,239.885 168.018,240.081 168.214 C 241.307 169.440,248.800 167.508,248.800 165.966 C 248.800 165.786,249.406 165.045,250.147 164.319 C 251.247 163.242,252.432 161.172,251.927 161.209 C 251.857 161.215,250.810 162.493,249.600 164.050 M181.786 184.400 C 181.786 196.170,181.837 200.985,181.900 195.100 C 181.962 189.215,181.962 179.585,181.900 173.700 C 181.837 167.815,181.786 172.630,181.786 184.400 M150.400 164.177 C 150.400 164.504,150.765 164.967,151.211 165.206 C 151.657 165.445,151.900 165.839,151.749 166.082 C 151.599 166.325,151.657 166.412,151.877 166.276 C 152.359 165.978,154.528 168.138,154.139 168.528 C 153.989 168.677,154.077 168.800,154.333 168.800 C 155.228 168.800,154.785 168.038,152.600 165.818 C 151.388 164.586,150.400 163.849,150.400 164.177 M272.339 169.069 C 271.385 170.351,269.209 172.800,267.503 174.511 C 265.796 176.223,264.400 177.784,264.400 177.981 C 264.400 178.494,270.433 172.185,272.224 169.800 C 273.050 168.700,273.917 167.675,274.151 167.522 C 274.385 167.369,274.463 167.130,274.324 166.991 C 274.186 166.852,273.292 167.788,272.339 169.069 M156.800 168.040 L 155.000 168.280 157.200 168.335 C 158.410 168.365,162.181 168.464,165.580 168.555 C 168.979 168.645,172.204 168.551,172.747 168.344 C 173.293 168.137,173.838 168.123,173.967 168.314 C 174.095 168.503,174.498 168.768,174.863 168.903 C 175.496 169.135,175.927 175.326,175.623 179.800 C 175.479 181.905,175.519 182.954,175.814 184.892 C 176.126 186.940,175.353 188.800,174.191 188.800 C 173.866 188.800,173.600 188.963,173.600 189.163 C 173.600 189.908,175.252 189.059,175.766 188.049 C 176.372 186.856,176.248 168.888,175.629 168.269 C 175.235 167.875,159.479 167.683,156.800 168.040 M127.179 168.978 C 128.320 170.192,128.574 170.273,128.025 169.247 C 127.804 168.833,127.306 168.373,126.921 168.225 C 126.398 168.024,126.463 168.216,127.179 168.978 M223.831 169.350 C 223.704 169.983,223.600 174.410,223.600 179.188 C 223.600 188.540,223.760 189.254,225.831 189.168 C 226.399 189.145,226.443 189.079,226.000 188.916 C 224.019 188.188,223.984 188.011,224.016 178.761 C 224.038 172.384,224.178 169.950,224.540 169.650 C 224.811 169.425,228.313 169.114,232.322 168.959 C 241.674 168.598,241.294 168.200,231.597 168.200 L 224.061 168.200 223.831 169.350 M218.158 172.166 C 218.038 172.478,218.005 173.243,218.084 173.866 C 218.202 174.791,218.264 174.687,218.425 173.300 C 218.627 171.551,218.538 171.175,218.158 172.166 M133.472 176.443 C 134.171 177.189,135.216 178.340,135.794 179.000 C 136.439 179.738,136.306 179.430,135.448 178.200 C 134.680 177.100,133.635 175.949,133.126 175.643 C 132.408 175.210,132.485 175.390,133.472 176.443 M218.069 178.000 C 218.056 178.550,218.195 179.720,218.377 180.600 C 218.589 181.626,218.716 181.841,218.731 181.200 C 218.744 180.650,218.605 179.480,218.423 178.600 C 218.211 177.574,218.084 177.359,218.069 178.000 M139.213 182.656 C 139.231 183.144,140.357 184.576,140.561 184.371 C 140.655 184.277,140.387 183.775,139.966 183.256 C 139.545 182.736,139.206 182.466,139.213 182.656 M218.129 185.310 C 218.144 187.021,218.271 188.191,218.410 187.910 C 218.549 187.630,218.536 186.230,218.382 184.800 L 218.101 182.200 218.129 185.310 M257.962 185.993 C 255.926 188.213,255.154 188.794,254.200 188.822 C 253.189 188.851,253.126 188.906,253.800 189.173 C 255.036 189.663,255.688 189.225,258.376 186.100 C 261.551 182.409,261.308 182.347,257.962 185.993 M143.400 187.600 C 144.259 188.480,145.052 189.200,145.162 189.200 C 145.272 189.200,144.659 188.480,143.800 187.600 C 142.941 186.720,142.148 186.000,142.038 186.000 C 141.928 186.000,142.541 186.720,143.400 187.600 M149.105 189.083 C 149.602 189.179,150.322 189.175,150.705 189.075 C 151.087 188.975,150.680 188.896,149.800 188.901 C 148.920 188.905,148.607 188.987,149.105 189.083 M240.000 189.200 L 229.000 189.419 240.200 189.504 C 246.905 189.554,251.641 189.432,252.000 189.200 C 252.490 188.884,252.453 188.828,251.800 188.896 C 251.360 188.943,246.050 189.079,240.000 189.200 M146.100 189.476 C 146.485 189.576,147.115 189.576,147.500 189.476 C 147.885 189.375,147.570 189.293,146.800 189.293 C 146.030 189.293,145.715 189.375,146.100 189.476 M153.900 189.482 C 154.395 189.578,155.205 189.578,155.700 189.482 C 156.195 189.387,155.790 189.309,154.800 189.309 C 153.810 189.309,153.405 189.387,153.900 189.482 M161.105 189.483 C 161.602 189.579,162.322 189.575,162.705 189.475 C 163.087 189.375,162.680 189.296,161.800 189.301 C 160.920 189.305,160.607 189.387,161.105 189.483 M164.505 189.487 C 165.114 189.579,166.014 189.577,166.505 189.482 C 166.997 189.387,166.500 189.311,165.400 189.314 C 164.300 189.317,163.897 189.395,164.505 189.487 M218.114 194.200 C 218.117 195.300,218.195 195.703,218.287 195.095 C 218.379 194.486,218.377 193.586,218.282 193.095 C 218.187 192.603,218.111 193.100,218.114 194.200 M218.148 202.400 C 218.148 204.710,218.214 205.655,218.295 204.500 C 218.376 203.345,218.376 201.455,218.295 200.300 C 218.214 199.145,218.148 200.090,218.148 202.400 M181.309 208.000 C 181.309 208.990,181.387 209.395,181.482 208.900 C 181.578 208.405,181.578 207.595,181.482 207.100 C 181.387 206.605,181.309 207.010,181.309 208.000 M218.153 213.400 C 218.153 216.040,218.218 217.068,218.297 215.684 C 218.375 214.301,218.374 212.141,218.295 210.884 C 218.216 209.628,218.152 210.760,218.153 213.400 M181.344 215.600 C 181.344 217.690,181.412 218.545,181.494 217.500 C 181.576 216.455,181.576 214.745,181.494 213.700 C 181.412 212.655,181.344 213.510,181.344 215.600 M181.324 224.600 C 181.326 225.920,181.401 226.412,181.490 225.693 C 181.579 224.974,181.577 223.894,181.486 223.293 C 181.395 222.692,181.322 223.280,181.324 224.600 M181.293 229.200 C 181.293 229.970,181.375 230.285,181.476 229.900 C 181.576 229.515,181.576 228.885,181.476 228.500 C 181.375 228.115,181.293 228.430,181.293 229.200 M218.114 234.200 C 218.117 235.300,218.195 235.703,218.287 235.095 C 218.379 234.486,218.377 233.586,218.282 233.095 C 218.187 232.603,218.111 233.100,218.114 234.200 M181.344 238.000 C 181.344 240.090,181.412 240.945,181.494 239.900 C 181.576 238.855,181.576 237.145,181.494 236.100 C 181.412 235.055,181.344 235.910,181.344 238.000 M218.124 240.200 C 218.126 241.520,218.201 242.012,218.290 241.293 C 218.379 240.574,218.377 239.494,218.286 238.893 C 218.195 238.292,218.122 238.880,218.124 240.200 M181.293 245.200 C 181.293 245.970,181.375 246.285,181.476 245.900 C 181.576 245.515,181.576 244.885,181.476 244.500 C 181.375 244.115,181.293 244.430,181.293 245.200 M181.274 252.123 C 181.190 255.225,181.853 258.369,182.656 258.677 C 182.955 258.792,183.204 259.091,183.209 259.343 C 183.214 259.594,183.580 260.250,184.022 260.800 L 184.826 261.800 184.113 260.212 C 183.721 259.339,183.098 258.317,182.729 257.941 C 182.040 257.240,181.688 255.463,181.471 251.600 C 181.354 249.514,181.344 249.541,181.274 252.123 M218.082 252.850 C 218.037 254.528,217.905 256.507,217.789 257.250 C 217.598 258.474,217.618 258.509,218.004 257.626 C 218.238 257.090,218.369 255.110,218.297 253.226 L 218.165 249.800 218.082 252.850 M216.664 259.090 C 215.786 259.222,215.361 259.638,214.787 260.930 C 214.379 261.849,213.675 262.865,213.223 263.188 C 212.770 263.512,212.400 263.951,212.400 264.163 C 212.400 264.738,214.774 262.356,215.353 261.200 C 215.628 260.650,216.045 260.238,216.279 260.284 C 216.513 260.330,217.024 260.015,217.414 259.584 C 217.805 259.153,218.051 258.827,217.962 258.860 C 217.873 258.893,217.289 258.996,216.664 259.090 M185.200 262.519 C 185.200 262.603,185.830 263.245,186.600 263.945 C 187.370 264.646,188.000 265.080,188.000 264.910 C 188.000 264.739,187.370 264.097,186.600 263.483 C 185.830 262.869,185.200 262.435,185.200 262.519 M210.188 266.906 C 207.255 269.958,204.881 272.693,205.767 272.000 C 207.447 270.685,212.834 264.784,212.334 264.806 C 212.260 264.809,211.295 265.754,210.188 266.906 M189.611 267.016 C 190.271 267.975,191.033 268.889,191.305 269.048 C 191.577 269.207,191.475 268.966,191.077 268.512 C 190.679 268.058,190.220 267.188,190.058 266.578 C 189.895 265.969,189.458 265.426,189.086 265.372 C 188.555 265.294,188.667 265.644,189.611 267.016 M194.653 273.000 C 195.698 274.210,196.636 275.200,196.738 275.200 C 196.840 275.200,196.626 274.871,196.262 274.469 C 195.898 274.066,195.600 273.587,195.600 273.404 C 195.600 273.091,193.229 270.800,192.905 270.800 C 192.822 270.800,193.609 271.790,194.653 273.000 M203.400 275.200 C 203.002 275.640,202.434 276.000,202.138 276.000 C 201.842 276.000,201.600 276.205,201.600 276.456 C 201.600 276.707,201.285 277.151,200.900 277.443 C 200.515 277.735,200.330 277.980,200.488 277.987 C 200.647 277.994,201.637 277.193,202.688 276.207 C 203.740 275.221,204.493 274.411,204.362 274.407 C 204.231 274.403,203.798 274.760,203.400 275.200 M198.087 277.005 C 198.904 277.860,199.638 278.479,199.717 278.380 C 199.797 278.281,199.128 277.581,198.231 276.825 L 196.600 275.450 198.087 277.005 " stroke="none" fill="#ecfbfb" fill-rule="evenodd"></path><path id="path2" d="M91.295 124.666 C 91.018 124.778,90.603 125.259,90.373 125.735 C 90.016 126.476,90.033 126.514,90.496 126.000 C 90.793 125.670,91.289 125.175,91.598 124.900 C 92.187 124.376,92.129 124.331,91.295 124.666 M93.000 124.819 C 92.442 125.071,92.685 125.107,93.800 124.938 C 94.680 124.804,95.475 124.628,95.567 124.547 C 95.910 124.244,93.768 124.471,93.000 124.819 M99.320 124.698 C 101.255 124.772,104.315 124.771,106.120 124.697 C 107.924 124.623,106.340 124.563,102.600 124.564 C 98.860 124.564,97.384 124.625,99.320 124.698 M142.700 124.693 C 143.635 124.777,145.165 124.777,146.100 124.693 C 147.035 124.609,146.270 124.540,144.400 124.540 C 142.530 124.540,141.765 124.609,142.700 124.693 M155.511 124.693 C 156.451 124.778,157.891 124.777,158.711 124.691 C 159.530 124.605,158.760 124.536,157.000 124.537 C 155.240 124.539,154.570 124.609,155.511 124.693 M176.272 124.700 C 181.592 124.763,190.412 124.763,195.872 124.700 C 201.333 124.637,196.980 124.585,186.200 124.585 C 175.420 124.585,170.953 124.637,176.272 124.700 M218.500 124.699 C 222.405 124.765,228.795 124.765,232.700 124.699 C 236.605 124.634,233.410 124.580,225.600 124.580 C 217.790 124.580,214.595 124.634,218.500 124.699 M266.120 124.698 C 268.055 124.772,271.115 124.771,272.920 124.697 C 274.724 124.623,273.140 124.563,269.400 124.564 C 265.660 124.564,264.184 124.625,266.120 124.698 M282.500 124.691 C 283.325 124.778,284.675 124.778,285.500 124.691 C 286.325 124.605,285.650 124.534,284.000 124.534 C 282.350 124.534,281.675 124.605,282.500 124.691 M291.105 124.683 C 291.602 124.779,292.322 124.775,292.705 124.675 C 293.087 124.575,292.680 124.496,291.800 124.501 C 290.920 124.505,290.607 124.587,291.105 124.683 M297.321 124.698 C 299.477 124.771,302.897 124.770,304.921 124.698 C 306.944 124.625,305.180 124.566,301.000 124.567 C 296.820 124.567,295.164 124.626,297.321 124.698 M91.846 128.111 C 92.136 128.942,93.600 129.863,93.600 129.214 C 93.600 128.986,93.395 128.800,93.144 128.800 C 92.893 128.800,92.443 128.485,92.143 128.100 C 91.626 127.435,91.611 127.436,91.846 128.111 M95.200 132.125 C 95.200 132.194,95.785 132.779,96.500 133.425 L 97.800 134.600 96.625 133.300 C 95.530 132.088,95.200 131.816,95.200 132.125 M99.220 136.621 C 100.199 137.733,101.081 138.581,101.181 138.507 C 101.280 138.433,100.479 137.523,99.401 136.486 L 97.440 134.600 99.220 136.621 M300.175 137.300 L 299.000 138.600 300.300 137.425 C 301.015 136.779,301.600 136.194,301.600 136.125 C 301.600 135.816,301.270 136.088,300.175 137.300 M295.468 142.854 C 294.406 144.144,293.619 145.200,293.720 145.200 C 294.005 145.200,297.713 140.777,297.547 140.634 C 297.466 140.564,296.531 141.563,295.468 142.854 M104.034 141.847 C 104.565 142.533,105.080 143.023,105.179 142.935 C 105.277 142.847,104.843 142.286,104.213 141.688 L 103.069 140.600 104.034 141.847 M108.399 147.500 C 108.922 148.215,109.413 148.800,109.489 148.800 C 109.793 148.800,108.801 147.300,108.145 146.767 C 107.713 146.416,107.810 146.696,108.399 147.500 M289.512 149.805 C 287.886 151.615,285.902 154.164,286.871 153.200 C 288.595 151.482,291.301 148.372,291.161 148.268 C 291.072 148.203,290.331 148.894,289.512 149.805 M111.200 150.380 C 111.200 150.586,111.532 150.990,111.937 151.277 C 112.342 151.565,112.778 152.070,112.905 152.400 C 113.105 152.917,113.141 152.913,113.168 152.372 C 113.186 152.027,112.750 151.353,112.200 150.875 C 111.650 150.397,111.200 150.174,111.200 150.380 M224.667 154.267 C 224.225 154.708,224.366 155.200,224.933 155.200 C 225.227 155.200,225.467 154.930,225.467 154.600 C 225.467 153.967,225.113 153.820,224.667 154.267 M227.045 154.574 C 227.333 155.323,229.348 155.447,229.102 154.700 C 229.012 154.425,228.458 154.143,227.872 154.074 C 227.041 153.975,226.858 154.086,227.045 154.574 M115.200 155.089 C 115.200 155.694,118.364 159.085,118.384 158.500 C 118.393 158.225,118.221 158.000,118.003 158.000 C 117.784 158.000,117.064 157.253,116.403 156.340 C 115.741 155.427,115.200 154.864,115.200 155.089 M254.300 155.089 C 255.015 155.178,255.600 155.430,255.600 155.649 C 255.600 155.868,255.780 155.936,256.000 155.800 C 256.904 155.242,256.296 154.804,254.700 154.864 C 253.226 154.920,253.173 154.950,254.300 155.089 M283.600 156.400 C 283.130 157.060,282.836 157.600,282.946 157.600 C 283.056 157.600,283.530 157.060,284.000 156.400 C 284.470 155.740,284.764 155.200,284.654 155.200 C 284.544 155.200,284.070 155.740,283.600 156.400 M218.493 157.200 C 218.493 157.970,218.575 158.285,218.676 157.900 C 218.776 157.515,218.776 156.885,218.676 156.500 C 218.575 156.115,218.493 156.430,218.493 157.200 M144.799 157.398 C 145.314 157.948,145.811 158.323,145.902 158.232 C 146.099 158.035,144.518 156.400,144.130 156.400 C 143.982 156.400,144.283 156.849,144.799 157.398 M181.388 182.000 C 181.388 195.530,181.438 201.065,181.500 194.300 C 181.561 187.535,181.561 176.465,181.500 169.700 C 181.438 162.935,181.388 168.470,181.388 182.000 M218.551 164.400 C 218.551 166.930,218.616 167.965,218.696 166.700 C 218.775 165.435,218.775 163.365,218.696 162.100 C 218.616 160.835,218.551 161.870,218.551 164.400 M250.345 162.700 C 248.980 164.196,246.690 167.200,246.915 167.200 C 247.016 167.200,248.109 165.940,249.345 164.400 C 251.671 161.501,252.089 160.790,250.345 162.700 M277.000 164.000 C 276.368 164.660,276.019 165.190,276.225 165.178 C 276.578 165.157,278.639 162.800,278.305 162.800 C 278.220 162.800,277.632 163.340,277.000 164.000 M150.884 164.121 C 151.388 164.627,152.078 165.212,152.419 165.421 C 152.785 165.645,152.744 165.529,152.319 165.136 C 151.923 164.771,151.600 164.295,151.600 164.079 C 151.600 163.862,151.315 163.576,150.967 163.443 C 149.934 163.046,149.920 163.153,150.884 164.121 M123.517 165.000 C 123.745 165.440,124.532 166.340,125.266 166.999 L 126.600 168.198 125.201 166.599 C 124.432 165.720,123.645 164.820,123.452 164.600 C 123.260 164.380,123.289 164.560,123.517 165.000 M154.292 167.655 C 154.609 168.046,155.217 168.200,155.992 168.086 C 157.502 167.865,157.594 167.498,156.100 167.655 C 155.495 167.719,154.730 167.608,154.400 167.408 C 153.903 167.109,153.885 167.151,154.292 167.655 M163.100 167.898 C 164.915 167.972,167.885 167.972,169.700 167.898 C 171.515 167.823,170.030 167.763,166.400 167.763 C 162.770 167.763,161.285 167.823,163.100 167.898 M175.100 168.012 C 175.638 168.229,176.019 168.742,176.046 169.287 C 176.082 169.994,176.135 170.038,176.279 169.481 C 176.508 168.599,175.732 167.591,174.851 167.625 C 174.410 167.643,174.491 167.768,175.100 168.012 M223.654 168.694 C 223.693 169.475,223.756 169.565,223.870 169.000 C 224.024 168.233,224.351 168.200,231.868 168.200 C 236.179 168.200,240.717 168.103,241.953 167.985 C 243.189 167.866,239.565 167.729,233.900 167.679 L 223.600 167.589 223.654 168.694 M128.834 171.047 C 129.365 171.733,129.880 172.223,129.979 172.135 C 130.077 172.047,129.643 171.486,129.013 170.888 L 127.869 169.800 128.834 171.047 M176.150 174.600 C 176.151 177.020,176.216 177.958,176.296 176.685 C 176.376 175.412,176.375 173.432,176.294 172.285 C 176.214 171.138,176.149 172.180,176.150 174.600 M218.509 173.600 C 218.509 174.590,218.587 174.995,218.682 174.500 C 218.778 174.005,218.778 173.195,218.682 172.700 C 218.587 172.205,218.509 172.610,218.509 173.600 M265.600 177.000 C 265.083 177.550,264.851 178.000,265.084 178.000 C 265.317 178.000,265.803 177.550,266.163 177.000 C 266.524 176.450,266.756 176.000,266.679 176.000 C 266.602 176.000,266.117 176.450,265.600 177.000 M218.501 178.200 C 218.505 179.080,218.587 179.393,218.683 178.895 C 218.779 178.398,218.775 177.678,218.675 177.295 C 218.575 176.913,218.496 177.320,218.501 178.200 M176.109 182.000 C 176.109 182.990,176.187 183.395,176.282 182.900 C 176.378 182.405,176.378 181.595,176.282 181.100 C 176.187 180.605,176.109 181.010,176.109 182.000 M218.528 184.400 C 218.528 185.830,218.601 186.415,218.689 185.700 C 218.778 184.985,218.778 183.815,218.689 183.100 C 218.601 182.385,218.528 182.970,218.528 184.400 M143.385 187.900 C 144.974 189.581,145.612 189.992,146.585 189.959 L 147.800 189.918 146.458 189.601 C 145.720 189.427,144.280 188.500,143.258 187.542 L 141.400 185.800 143.385 187.900 M175.674 188.198 C 175.423 188.749,174.988 189.208,174.709 189.218 C 170.642 189.359,168.770 189.496,168.601 189.666 C 168.303 189.963,174.043 189.767,175.059 189.445 C 175.529 189.296,176.016 188.782,176.141 188.304 C 176.463 187.073,176.212 187.016,175.674 188.198 M218.520 189.600 C 218.520 190.810,218.595 191.305,218.687 190.700 C 218.778 190.095,218.778 189.105,218.687 188.500 C 218.595 187.895,218.520 188.390,218.520 189.600 M223.827 188.526 C 224.128 189.312,225.499 189.746,226.859 189.488 C 227.553 189.356,227.441 189.295,226.431 189.254 C 225.679 189.225,224.726 188.895,224.314 188.522 C 223.610 187.885,223.581 187.886,223.827 188.526 M148.000 189.317 C 148.379 189.670,156.321 190.052,156.518 189.726 C 156.627 189.547,154.710 189.339,152.258 189.265 C 149.806 189.191,147.890 189.214,148.000 189.317 M249.200 189.602 C 246.907 189.847,247.089 189.875,250.737 189.842 C 253.012 189.821,254.937 189.702,255.015 189.576 C 255.211 189.258,252.305 189.271,249.200 189.602 M235.705 189.887 C 236.314 189.979,237.214 189.977,237.705 189.882 C 238.197 189.787,237.700 189.711,236.600 189.714 C 235.500 189.717,235.097 189.795,235.705 189.887 M240.500 189.894 C 241.545 189.976,243.255 189.976,244.300 189.894 C 245.345 189.812,244.490 189.744,242.400 189.744 C 240.310 189.744,239.455 189.812,240.500 189.894 M218.395 225.258 C 218.206 257.768,218.178 258.743,217.415 259.658 L 216.630 260.600 217.615 259.689 L 218.600 258.778 218.712 231.889 C 218.773 217.100,218.771 202.030,218.707 198.400 C 218.642 194.770,218.502 206.856,218.395 225.258 M181.293 210.800 C 181.293 211.570,181.375 211.885,181.476 211.500 C 181.576 211.115,181.576 210.485,181.476 210.100 C 181.375 209.715,181.293 210.030,181.293 210.800 M181.309 220.800 C 181.309 221.790,181.387 222.195,181.482 221.700 C 181.578 221.205,181.578 220.395,181.482 219.900 C 181.387 219.405,181.309 219.810,181.309 220.800 M181.320 232.400 C 181.320 233.610,181.395 234.105,181.487 233.500 C 181.578 232.895,181.578 231.905,181.487 231.300 C 181.395 230.695,181.320 231.190,181.320 232.400 M181.293 242.800 C 181.293 243.570,181.375 243.885,181.476 243.500 C 181.576 243.115,181.576 242.485,181.476 242.100 C 181.375 241.715,181.293 242.030,181.293 242.800 M181.206 256.233 C 181.209 256.655,181.395 257.270,181.618 257.600 C 181.915 258.038,181.952 257.876,181.756 257.000 C 181.427 255.529,181.198 255.210,181.206 256.233 M183.564 260.733 C 183.780 261.136,184.271 261.721,184.655 262.033 C 185.087 262.384,184.990 262.104,184.401 261.300 C 183.351 259.865,182.957 259.598,183.564 260.733 M215.619 260.577 C 215.347 260.905,215.201 261.404,215.295 261.685 C 215.403 262.010,215.649 261.855,215.965 261.265 C 216.553 260.166,216.329 259.721,215.619 260.577 M213.563 263.500 C 211.751 265.522,211.015 266.617,212.421 265.200 C 213.968 263.642,214.989 262.400,214.724 262.400 C 214.628 262.400,214.106 262.895,213.563 263.500 M188.014 265.222 C 188.006 265.345,188.450 266.055,189.000 266.800 C 189.550 267.545,189.999 267.985,189.998 267.778 C 189.996 267.372,188.038 264.851,188.014 265.222 M192.400 270.579 C 192.400 270.809,196.415 275.725,197.317 276.600 C 197.544 276.820,197.355 276.460,196.898 275.800 C 195.795 274.209,192.400 270.268,192.400 270.579 M206.100 271.766 C 205.605 272.240,205.200 272.764,205.200 272.930 C 205.200 273.096,205.686 272.781,206.281 272.230 C 206.875 271.679,207.280 271.155,207.181 271.066 C 207.081 270.977,206.595 271.292,206.100 271.766 M203.078 275.813 C 202.460 276.356,202.114 276.800,202.308 276.800 C 202.502 276.800,203.083 276.350,203.600 275.800 C 204.795 274.528,204.531 274.534,203.078 275.813 " stroke="none" fill="#e4fbfb" fill-rule="evenodd"></path><path id="path3" d="M88.585 124.118 C 88.128 125.940,89.133 128.400,90.335 128.400 C 90.550 128.400,91.231 129.197,91.847 130.172 C 92.464 131.146,93.110 131.855,93.284 131.748 C 93.458 131.641,93.600 131.821,93.600 132.149 C 93.600 132.478,93.943 132.855,94.361 132.988 C 94.780 133.121,95.425 133.866,95.794 134.645 C 96.230 135.563,96.665 135.984,97.033 135.843 C 97.387 135.707,97.600 135.884,97.600 136.315 C 97.600 136.694,98.320 137.769,99.200 138.703 C 100.080 139.637,100.800 140.505,100.800 140.632 C 100.800 140.759,101.520 141.576,102.400 142.447 C 103.280 143.318,104.000 144.215,104.000 144.439 C 104.000 144.664,104.180 144.736,104.400 144.600 C 104.620 144.464,104.800 144.632,104.800 144.973 C 104.800 145.314,105.160 145.818,105.600 146.093 C 106.040 146.368,106.400 146.807,106.400 147.069 C 106.400 147.332,106.760 147.660,107.200 147.800 C 107.640 147.940,108.000 148.326,108.000 148.658 C 108.000 148.991,108.720 149.954,109.600 150.800 C 110.480 151.646,111.200 152.505,111.200 152.709 C 111.200 153.345,113.611 155.640,114.016 155.390 C 114.227 155.259,114.400 155.523,114.400 155.976 C 114.400 156.429,114.580 156.800,114.800 156.800 C 115.020 156.800,115.200 157.008,115.200 157.262 C 115.200 157.517,115.920 158.431,116.800 159.293 C 117.680 160.156,118.400 160.988,118.400 161.142 C 118.400 161.297,118.760 161.683,119.200 162.000 C 119.640 162.317,120.000 162.795,120.000 163.061 C 120.000 163.328,120.360 163.660,120.800 163.800 C 121.240 163.940,121.600 164.390,121.600 164.800 C 121.600 165.210,121.960 165.660,122.400 165.800 C 122.840 165.940,123.200 166.240,123.200 166.466 C 123.200 166.693,123.740 167.383,124.400 168.000 C 125.060 168.617,125.600 169.349,125.600 169.627 C 125.600 169.906,125.711 170.022,125.848 169.886 C 126.160 169.574,127.200 170.587,127.200 171.203 C 127.200 171.456,127.920 172.354,128.800 173.200 C 129.680 174.046,130.400 174.871,130.400 175.035 C 130.400 175.199,130.669 175.618,130.998 175.966 C 131.326 176.315,132.295 177.337,133.151 178.237 C 134.006 179.137,134.829 180.262,134.980 180.737 C 135.131 181.212,135.467 181.604,135.727 181.609 C 135.987 181.613,136.707 182.333,137.326 183.209 C 137.945 184.084,138.620 184.800,138.826 184.800 C 139.032 184.800,139.200 185.058,139.200 185.373 C 139.200 185.688,139.560 186.060,140.000 186.200 C 140.440 186.340,140.800 186.802,140.800 187.227 C 140.800 187.919,141.222 188.186,142.100 188.047 C 142.265 188.021,142.400 188.283,142.400 188.629 C 142.400 189.409,143.066 190.062,144.519 190.705 C 145.965 191.345,175.643 191.419,176.826 190.786 C 177.966 190.176,178.035 167.819,176.900 166.957 C 176.361 166.548,173.831 166.423,165.905 166.413 C 154.534 166.399,155.194 166.536,152.612 163.642 C 151.945 162.895,150.725 161.576,149.900 160.710 C 149.075 159.845,148.400 158.990,148.400 158.811 C 148.400 158.631,147.860 157.907,147.200 157.200 C 145.817 155.720,145.727 155.461,146.700 155.764 C 147.614 156.048,148.741 155.417,147.898 155.093 C 147.094 154.784,144.689 155.333,144.512 155.865 C 144.360 156.319,146.367 158.746,148.700 160.930 C 149.415 161.600,150.000 162.372,150.000 162.647 C 150.000 162.921,150.360 163.260,150.800 163.400 C 151.240 163.540,151.600 163.799,151.600 163.976 C 151.600 164.154,152.297 165.061,153.148 165.993 L 154.697 167.687 164.985 167.625 C 172.329 167.581,175.434 167.697,175.837 168.030 C 176.421 168.515,176.696 186.254,176.151 188.287 C 175.781 189.670,175.100 189.731,159.672 189.772 L 145.144 189.810 142.872 187.369 C 140.080 184.370,136.086 179.876,134.547 178.003 C 132.947 176.055,131.507 174.371,130.800 173.622 C 130.470 173.273,129.895 172.516,129.522 171.940 C 129.149 171.365,127.567 169.478,126.006 167.747 C 120.051 161.141,119.485 160.495,119.179 159.955 C 119.006 159.650,118.040 158.542,117.032 157.493 C 116.025 156.444,115.200 155.331,115.200 155.020 C 115.200 154.709,114.829 154.336,114.376 154.192 C 113.922 154.048,113.342 153.472,113.087 152.912 C 112.832 152.352,111.718 150.962,110.612 149.823 C 108.131 147.268,105.566 144.255,105.069 143.309 C 104.864 142.919,103.923 141.790,102.977 140.800 C 102.031 139.810,99.850 137.380,98.129 135.400 C 96.408 133.420,94.685 131.565,94.300 131.277 C 93.915 130.990,93.600 130.571,93.600 130.347 C 93.600 129.829,91.390 127.600,90.877 127.600 C 90.097 127.600,90.058 125.942,90.821 125.179 C 91.566 124.434,93.904 124.420,200.691 124.509 L 309.800 124.600 309.917 125.415 C 309.984 125.884,309.602 126.635,309.017 127.184 C 308.457 127.710,308.000 128.281,308.000 128.454 C 308.000 128.627,306.922 129.901,305.605 131.284 C 304.287 132.668,303.207 133.993,303.205 134.228 C 303.202 134.463,302.795 135.022,302.300 135.471 C 300.878 136.758,297.600 140.364,297.600 140.640 C 297.600 140.954,293.786 145.431,292.301 146.860 C 291.696 147.444,291.200 148.055,291.200 148.219 C 291.200 148.383,290.435 149.352,289.500 150.373 C 283.746 156.657,281.160 159.541,280.335 160.596 C 279.821 161.253,279.130 162.069,278.800 162.409 C 278.470 162.749,277.480 163.906,276.600 164.981 C 275.720 166.055,274.572 167.399,274.049 167.967 C 273.526 168.535,272.399 169.940,271.545 171.088 C 270.691 172.236,269.634 173.368,269.196 173.602 C 268.758 173.836,268.400 174.203,268.400 174.416 C 268.400 174.630,267.590 175.603,266.600 176.579 C 265.610 177.555,264.800 178.507,264.800 178.693 C 264.800 178.880,264.215 179.683,263.500 180.477 C 262.785 181.271,261.480 182.766,260.600 183.801 C 259.720 184.835,258.505 186.244,257.900 186.930 C 257.295 187.617,256.800 188.310,256.800 188.470 C 256.800 189.834,228.019 190.657,224.711 189.387 C 223.681 188.992,223.251 181.293,223.566 168.871 L 223.600 167.542 231.700 167.609 C 248.013 167.744,245.680 168.381,250.600 162.442 C 251.920 160.848,253.333 159.212,253.741 158.805 C 254.528 158.018,255.600 156.144,255.600 155.554 C 255.600 155.359,254.840 155.200,253.911 155.200 C 252.258 155.200,252.241 155.213,253.124 155.832 L 254.027 156.464 253.013 157.261 C 252.456 157.699,252.000 158.281,252.000 158.553 C 252.000 158.825,251.284 159.667,250.409 160.424 C 249.534 161.181,248.814 161.989,248.809 162.221 C 248.804 162.452,247.978 163.487,246.973 164.521 L 245.147 166.400 234.253 166.400 C 226.314 166.400,223.230 166.530,222.880 166.880 C 222.070 167.690,222.209 189.752,223.029 190.571 C 223.579 191.122,225.643 191.200,239.631 191.200 L 255.605 191.200 257.402 189.376 C 258.391 188.374,259.200 187.294,259.200 186.976 C 259.200 186.659,259.487 186.400,259.837 186.400 C 260.188 186.400,260.567 186.046,260.681 185.613 C 260.794 185.181,261.227 184.718,261.643 184.586 C 262.059 184.454,262.400 184.164,262.400 183.942 C 262.400 183.719,263.120 182.846,264.000 182.000 C 264.880 181.154,265.600 180.260,265.600 180.012 C 265.600 179.765,266.500 178.662,267.600 177.562 C 268.700 176.462,269.600 175.378,269.600 175.152 C 269.600 174.575,270.654 173.587,270.952 173.886 C 271.089 174.022,271.200 173.877,271.200 173.563 C 271.200 173.249,271.560 172.768,272.000 172.493 C 272.440 172.218,272.800 171.725,272.800 171.397 C 272.800 171.068,272.978 170.800,273.197 170.800 C 273.684 170.800,276.000 168.420,276.000 167.919 C 276.000 167.720,276.539 166.981,277.198 166.278 C 277.857 165.575,278.397 164.775,278.398 164.500 C 278.399 164.225,278.598 164.000,278.840 164.000 C 279.255 164.000,281.600 161.729,281.600 161.326 C 281.600 161.222,282.320 160.446,283.200 159.600 C 284.080 158.754,284.800 157.857,284.800 157.605 C 284.800 157.354,285.700 156.271,286.800 155.200 C 287.900 154.129,288.800 152.970,288.800 152.626 C 288.800 152.282,288.935 151.997,289.100 151.994 C 289.525 151.985,292.000 149.758,292.000 149.385 C 292.000 149.215,292.720 148.369,293.600 147.507 C 294.480 146.644,295.200 145.682,295.200 145.369 C 295.200 145.056,295.380 144.800,295.600 144.800 C 295.820 144.800,296.000 144.500,296.000 144.133 C 296.000 143.767,296.096 143.563,296.213 143.680 C 296.455 143.922,299.200 141.286,299.200 140.812 C 299.200 140.642,300.277 139.355,301.594 137.952 C 302.911 136.548,303.991 135.285,303.994 135.145 C 303.997 135.005,304.900 133.932,306.000 132.761 C 307.100 131.589,308.000 130.401,308.000 130.120 C 308.000 129.840,308.711 129.161,309.581 128.612 C 311.246 127.561,311.962 125.770,311.411 124.035 L 311.146 123.200 199.981 123.200 L 88.815 123.200 88.585 124.118 M225.491 154.242 C 225.056 154.678,225.582 155.200,226.457 155.200 C 226.927 155.200,227.197 154.990,227.100 154.700 C 226.910 154.129,225.894 153.839,225.491 154.242 M178.723 155.010 C 178.608 155.126,177.850 155.245,177.039 155.276 C 176.228 155.306,175.757 155.450,175.993 155.596 C 176.229 155.741,177.226 155.815,178.211 155.759 L 180.000 155.658 180.000 207.190 L 180.000 258.721 181.994 260.661 C 183.090 261.727,183.990 262.812,183.994 263.071 C 183.997 263.330,184.444 263.891,184.986 264.318 C 185.529 264.745,185.859 265.208,185.720 265.347 C 185.487 265.580,186.191 265.759,186.900 265.647 C 187.065 265.621,187.155 265.825,187.100 266.100 C 187.045 266.375,187.238 266.551,187.530 266.490 C 187.821 266.430,187.949 266.560,187.813 266.779 C 187.677 266.998,188.384 268.019,189.383 269.047 C 190.382 270.075,191.200 271.069,191.200 271.256 C 191.200 271.443,192.100 272.515,193.200 273.639 C 194.300 274.762,195.200 275.848,195.200 276.051 C 195.200 277.015,198.814 280.000,199.981 280.000 C 201.115 280.000,205.600 276.162,205.600 275.193 C 205.600 275.017,207.040 273.378,208.800 271.551 C 210.560 269.723,212.000 268.051,212.000 267.834 C 212.000 267.618,212.900 266.596,214.000 265.563 C 215.100 264.530,216.000 263.496,216.000 263.265 C 216.000 263.034,216.879 261.979,217.953 260.922 C 220.325 258.587,220.000 267.151,220.000 206.973 C 220.000 155.903,220.005 155.548,220.792 155.797 C 221.227 155.936,221.902 155.847,222.292 155.601 C 222.746 155.314,222.784 155.214,222.400 155.323 C 222.070 155.416,221.485 155.330,221.100 155.132 C 218.658 153.876,218.826 150.231,218.707 207.187 L 218.600 258.754 216.600 260.733 C 215.500 261.822,213.880 263.585,213.000 264.651 C 212.120 265.718,210.455 267.565,209.300 268.757 C 208.145 269.948,207.200 271.065,207.200 271.239 C 207.200 271.413,206.877 271.790,206.482 272.077 C 206.087 272.365,205.365 273.254,204.878 274.053 C 203.794 275.833,200.855 278.397,199.896 278.399 C 198.944 278.401,192.400 271.559,192.400 270.560 C 192.400 270.416,191.607 269.465,190.637 268.448 C 184.933 262.469,183.883 261.286,183.316 260.200 C 182.971 259.540,182.560 258.910,182.404 258.800 C 181.242 257.983,181.200 256.161,181.195 206.726 C 181.192 179.157,181.081 156.195,180.948 155.700 C 180.725 154.867,179.307 154.427,178.723 155.010 M239.800 155.159 L 237.800 155.408 240.000 155.654 C 241.210 155.790,243.010 155.766,244.000 155.601 C 245.404 155.366,245.536 155.288,244.600 155.245 C 243.940 155.214,243.040 155.126,242.600 155.050 C 242.160 154.973,240.900 155.022,239.800 155.159 " stroke="none" fill="#dafcfc" fill-rule="evenodd"></path><path id="path4" d="M307.855 125.079 C 307.701 125.232,259.604 125.306,200.972 125.243 C 121.745 125.158,94.227 125.246,93.820 125.584 C 93.443 125.896,93.190 125.908,93.012 125.619 C 92.504 124.797,91.665 125.162,91.907 126.100 C 92.113 126.902,92.066 126.940,91.469 126.451 C 90.893 125.978,90.800 125.992,90.800 126.551 C 90.800 126.908,91.046 127.200,91.346 127.200 C 92.202 127.200,94.000 128.785,94.000 129.540 C 94.000 129.915,94.360 130.530,94.800 130.907 C 95.240 131.284,95.600 131.425,95.600 131.220 C 95.600 131.015,95.415 130.733,95.189 130.593 C 94.964 130.454,94.818 130.128,94.865 129.870 C 94.912 129.611,94.809 128.797,94.635 128.060 C 94.458 127.308,94.480 126.560,94.686 126.354 C 94.997 126.043,252.202 125.829,294.903 126.081 C 303.977 126.134,307.332 126.028,307.683 125.677 C 308.329 125.031,308.800 125.077,308.800 125.786 C 308.800 126.108,308.440 126.565,308.000 126.800 C 307.560 127.035,307.200 127.471,307.200 127.768 C 307.200 128.103,307.632 127.912,308.339 127.264 C 309.038 126.624,309.406 125.946,309.292 125.510 C 309.104 124.791,308.365 124.569,307.855 125.079 M304.830 128.964 C 304.509 129.350,304.494 129.611,304.781 129.788 C 305.556 130.267,305.209 130.800,304.120 130.800 C 303.322 130.800,303.157 130.917,303.489 131.249 C 303.820 131.580,303.579 132.207,302.566 133.649 C 300.715 136.281,301.176 136.140,303.149 133.469 C 304.014 132.298,305.325 130.732,306.061 129.991 C 306.798 129.249,307.187 128.771,306.928 128.928 C 306.668 129.085,306.342 129.030,306.204 128.807 C 305.856 128.244,305.382 128.298,304.830 128.964 M96.014 131.467 C 96.022 131.650,96.281 132.250,96.591 132.800 L 97.153 133.800 97.034 132.619 C 96.932 131.610,95.974 130.527,96.014 131.467 M297.600 132.800 C 297.600 133.316,297.803 133.599,298.100 133.500 C 298.375 133.408,298.600 133.093,298.600 132.800 C 298.600 132.507,298.375 132.192,298.100 132.100 C 297.803 132.001,297.600 132.284,297.600 132.800 M98.000 134.500 C 98.001 134.555,98.763 135.320,99.695 136.200 C 100.627 137.080,101.131 137.440,100.816 137.000 C 99.754 135.521,97.998 133.962,98.000 134.500 M295.333 136.963 C 295.388 137.836,295.757 138.599,296.358 139.085 L 297.296 139.845 296.256 140.526 C 295.028 141.331,293.822 143.443,294.390 143.794 C 294.602 143.925,294.887 143.591,295.023 143.052 C 295.158 142.512,295.789 141.608,296.424 141.041 C 297.126 140.416,297.488 139.774,297.347 139.406 C 297.158 138.914,297.713 138.535,298.100 138.892 C 298.379 139.150,300.799 136.579,300.789 136.034 C 300.783 135.628,300.536 135.792,300.102 136.491 C 299.358 137.691,298.295 138.284,298.074 137.623 C 297.997 137.390,297.685 137.200,297.381 137.200 C 297.077 137.200,296.635 136.840,296.400 136.400 C 295.745 135.177,295.236 135.446,295.333 136.963 M102.145 139.055 C 102.725 139.635,103.200 140.226,103.200 140.368 C 103.200 140.511,103.753 140.954,104.428 141.353 C 105.156 141.783,105.570 142.301,105.445 142.626 C 105.330 142.928,105.408 143.282,105.620 143.413 C 106.194 143.767,106.590 142.390,106.126 141.655 C 105.905 141.305,105.293 140.916,104.765 140.792 C 104.238 140.667,103.596 140.144,103.339 139.629 C 102.867 138.680,102.093 138.017,101.445 138.006 C 101.250 138.003,101.565 138.475,102.145 139.055 M291.200 142.351 C 291.200 142.598,291.374 142.800,291.587 142.800 C 291.801 142.800,291.870 143.072,291.743 143.405 C 291.615 143.738,291.721 144.264,291.978 144.574 C 292.457 145.151,291.933 146.609,291.000 147.294 C 290.743 147.483,290.759 147.590,291.046 147.594 C 291.936 147.606,293.709 144.489,293.435 143.395 C 293.293 142.830,292.994 142.480,292.771 142.618 C 292.548 142.756,292.103 142.651,291.782 142.385 C 291.372 142.045,291.200 142.035,291.200 142.351 M106.000 144.091 C 106.001 144.151,106.750 144.920,107.665 145.800 C 108.900 146.988,109.151 147.124,108.637 146.328 C 108.071 145.452,105.999 143.694,106.000 144.091 M109.213 147.723 C 109.195 148.180,111.689 150.400,112.222 150.400 C 112.465 150.400,112.920 150.895,113.232 151.500 C 114.366 153.697,119.600 159.738,119.600 158.850 C 119.600 158.682,119.150 158.153,118.600 157.675 C 118.050 157.197,117.600 156.534,117.600 156.203 C 117.600 155.871,117.348 155.600,117.040 155.600 C 116.531 155.600,116.032 154.950,113.911 151.523 C 113.532 150.911,113.317 150.161,113.434 149.856 C 113.550 149.552,113.356 149.192,113.002 149.056 C 112.628 148.913,112.461 148.975,112.603 149.205 C 113.236 150.229,110.568 149.149,109.713 148.035 C 109.445 147.686,109.220 147.545,109.213 147.723 M289.824 148.773 C 289.440 149.198,288.872 149.449,288.562 149.330 C 288.223 149.200,288.000 149.369,288.000 149.757 C 288.000 150.111,287.833 150.400,287.629 150.400 C 287.425 150.400,286.975 150.968,286.629 151.661 C 285.846 153.231,285.841 153.430,286.600 152.800 C 286.930 152.526,287.200 151.964,287.200 151.551 C 287.200 151.138,287.435 150.800,287.722 150.800 C 288.008 150.800,288.854 150.170,289.600 149.400 C 290.346 148.630,290.860 148.000,290.740 148.000 C 290.621 148.000,290.209 148.348,289.824 148.773 M147.731 153.472 C 146.813 153.566,145.841 153.910,145.570 154.236 C 145.142 154.752,145.308 154.788,146.839 154.514 C 149.736 153.997,153.817 154.116,153.695 154.714 C 153.546 155.449,178.120 155.240,178.860 154.500 C 179.135 154.225,179.669 154.000,180.047 154.000 C 180.424 154.000,180.824 154.225,180.935 154.500 C 181.066 154.824,181.148 154.776,181.168 154.363 C 181.197 153.793,179.754 153.718,167.500 153.656 C 159.965 153.617,152.810 153.522,151.600 153.443 C 150.390 153.365,148.649 153.378,147.731 153.472 M222.231 153.543 C 220.928 153.684,219.800 153.989,219.724 154.220 C 219.640 154.479,220.111 154.580,220.946 154.482 C 221.694 154.395,222.427 154.521,222.576 154.762 C 222.725 155.003,223.117 155.200,223.447 155.200 C 223.777 155.200,223.942 155.029,223.812 154.820 C 223.400 154.152,225.230 153.519,226.943 153.737 C 229.843 154.107,231.198 154.479,230.972 154.845 C 230.852 155.040,231.348 155.182,232.076 155.160 C 233.321 155.123,233.340 155.101,232.400 154.800 C 231.792 154.605,233.907 154.446,237.800 154.394 C 241.320 154.347,246.219 154.246,248.686 154.169 C 251.153 154.092,253.270 154.190,253.391 154.385 C 253.519 154.593,254.133 154.591,254.862 154.382 C 258.112 153.450,257.664 154.665,252.390 161.089 C 252.169 161.359,251.811 162.044,251.595 162.613 C 251.355 163.244,251.021 163.536,250.739 163.362 C 250.452 163.185,250.385 163.252,250.562 163.538 C 250.719 163.792,250.667 164.000,250.446 164.000 C 250.226 164.000,249.725 164.543,249.333 165.206 C 247.853 167.711,246.254 168.322,240.549 168.566 C 228.309 169.088,224.972 169.319,224.529 169.674 C 224.207 169.930,224.060 171.793,224.067 175.525 C 224.072 178.795,224.203 180.597,224.392 180.000 C 224.566 179.450,224.615 178.320,224.501 177.490 C 224.351 176.391,224.487 175.767,225.002 175.198 C 225.633 174.501,225.653 174.219,225.195 172.582 C 224.371 169.640,224.439 169.616,234.439 169.327 C 240.881 169.140,243.255 169.201,243.946 169.571 C 244.707 169.978,244.987 169.954,245.565 169.432 C 245.949 169.084,246.623 168.800,247.064 168.800 C 247.774 168.800,250.400 165.799,250.400 164.987 C 250.400 163.173,254.521 161.060,255.938 162.148 C 256.361 162.473,256.447 162.351,256.338 161.581 C 256.234 160.844,255.951 160.596,255.200 160.584 C 253.802 160.561,254.464 158.010,255.871 157.997 C 256.911 157.987,257.593 154.236,256.623 153.864 C 256.305 153.742,250.320 153.631,243.323 153.617 C 236.325 153.602,229.250 153.522,227.600 153.438 C 225.950 153.354,223.534 153.402,222.231 153.543 M283.169 156.000 C 281.932 157.320,280.703 158.400,280.437 158.400 C 280.171 158.400,280.057 158.569,280.185 158.775 C 280.312 158.982,280.174 159.297,279.877 159.475 C 279.580 159.654,279.024 160.340,278.641 161.000 C 278.258 161.660,277.237 162.544,276.373 162.964 C 275.105 163.581,274.800 163.943,274.800 164.837 C 274.800 165.613,274.439 166.203,273.594 166.804 C 272.931 167.277,272.110 168.200,271.771 168.855 C 270.913 170.516,268.423 173.200,267.741 173.200 C 267.430 173.200,267.067 173.480,266.936 173.823 C 266.804 174.166,266.478 174.362,266.211 174.260 C 265.891 174.137,265.784 174.382,265.898 174.979 C 266.039 175.719,265.856 175.929,264.902 176.120 C 263.893 176.321,263.752 176.508,263.877 177.477 C 264.062 178.905,263.528 179.710,262.337 179.797 C 261.713 179.843,261.386 180.128,261.359 180.650 C 261.292 181.920,260.409 183.234,259.706 183.113 C 259.292 183.041,258.964 183.366,258.810 184.000 C 258.676 184.550,258.092 185.228,257.513 185.507 C 256.934 185.786,256.236 186.522,255.962 187.141 L 255.463 188.268 247.032 188.365 C 242.394 188.419,236.260 188.526,233.400 188.602 C 225.420 188.815,224.756 188.521,224.363 184.600 L 224.122 182.200 224.061 184.838 C 223.959 189.235,223.037 189.000,240.386 189.000 L 255.085 189.000 258.086 185.880 C 259.736 184.164,261.312 182.337,261.589 181.821 C 261.865 181.306,262.610 180.499,263.245 180.030 C 263.880 179.560,264.400 178.827,264.400 178.399 C 264.400 177.965,265.766 176.253,267.503 174.511 C 269.209 172.800,271.375 170.365,272.316 169.100 C 273.256 167.835,274.201 166.800,274.414 166.800 C 274.628 166.800,275.114 166.080,275.496 165.200 C 275.877 164.320,276.361 163.600,276.571 163.600 C 276.945 163.600,278.568 161.925,281.526 158.487 C 282.337 157.544,283.720 156.059,284.600 155.187 C 285.480 154.314,286.024 153.600,285.809 153.600 C 285.594 153.600,284.406 154.680,283.169 156.000 M161.500 154.694 C 160.455 154.776,158.745 154.776,157.700 154.694 C 156.655 154.612,157.510 154.544,159.600 154.544 C 161.690 154.544,162.545 154.612,161.500 154.694 M141.632 155.489 C 141.141 156.027,141.141 156.086,141.632 155.920 C 142.392 155.664,144.146 158.014,143.601 158.559 C 142.711 159.449,143.166 160.043,144.542 159.784 C 145.907 159.528,150.000 162.892,150.000 164.269 C 150.000 164.855,151.737 166.800,152.260 166.800 C 152.462 166.800,152.937 167.324,153.316 167.965 L 154.004 169.130 162.502 169.272 C 167.176 169.350,171.618 169.287,172.374 169.132 C 174.599 168.677,176.536 171.127,174.799 172.201 C 174.543 172.359,174.534 172.702,174.772 173.147 C 175.287 174.110,175.260 179.954,174.734 181.298 C 174.394 182.167,174.440 182.601,174.952 183.384 C 175.783 184.651,175.785 186.958,174.957 187.786 C 174.247 188.496,173.787 188.512,157.137 188.413 C 151.669 188.380,147.577 188.513,147.444 188.728 C 147.304 188.955,152.531 189.080,160.842 189.050 L 174.470 189.000 175.277 188.004 C 175.950 187.173,176.038 186.676,175.810 185.004 C 175.525 182.913,175.486 181.812,175.623 179.800 C 175.957 174.881,175.501 169.099,174.763 168.906 C 174.343 168.797,174.000 168.536,174.000 168.326 C 174.000 168.106,173.621 168.077,173.100 168.258 C 172.013 168.635,154.011 168.711,154.240 168.337 C 154.328 168.193,153.501 167.266,152.400 166.276 C 151.300 165.287,150.400 164.300,150.400 164.082 C 150.400 163.701,147.176 159.964,146.055 159.046 C 143.521 156.970,143.154 156.433,143.646 155.511 C 144.067 154.720,144.053 154.665,143.536 155.090 C 143.185 155.380,142.789 155.435,142.570 155.224 C 142.351 155.012,141.969 155.121,141.632 155.489 M218.094 155.533 C 217.692 155.789,217.558 166.208,217.444 206.427 C 217.365 234.242,217.259 257.405,217.208 257.900 C 217.101 258.935,217.040 258.957,215.911 258.353 C 214.775 257.744,213.554 259.270,213.879 260.893 C 214.015 261.577,213.928 262.000,213.650 262.000 C 213.403 262.000,213.200 261.730,213.200 261.400 C 213.200 261.070,212.999 260.800,212.753 260.800 C 212.485 260.800,212.403 261.160,212.548 261.700 C 212.681 262.195,212.792 262.838,212.795 263.129 C 212.803 263.965,214.083 262.501,214.860 260.765 C 215.364 259.641,215.808 259.227,216.617 259.130 C 218.124 258.949,218.040 261.909,218.124 206.000 C 218.166 178.610,218.346 155.975,218.524 155.700 C 218.897 155.122,218.801 155.085,218.094 155.533 M181.433 156.500 C 181.612 156.995,181.768 158.688,181.779 160.263 C 181.791 161.838,181.932 162.918,182.094 162.663 C 182.256 162.408,182.391 161.906,182.394 161.546 C 182.397 161.186,182.829 160.611,183.353 160.267 C 184.759 159.346,185.325 157.470,184.375 156.877 C 183.796 156.515,183.508 156.549,183.020 157.037 C 182.462 157.595,182.363 157.556,182.011 156.628 C 181.796 156.063,181.504 155.600,181.363 155.600 C 181.222 155.600,181.253 156.005,181.433 156.500 M120.232 160.412 C 120.655 160.968,121.694 162.164,122.542 163.069 C 125.442 166.164,126.400 167.262,126.400 167.489 C 126.400 167.614,126.758 168.095,127.196 168.558 C 129.118 170.592,130.000 171.658,130.000 171.950 C 130.000 172.123,131.125 173.429,132.500 174.853 C 133.875 176.277,135.320 177.882,135.712 178.421 L 136.423 179.400 135.961 178.432 C 135.581 177.637,135.615 177.378,136.149 176.988 C 137.129 176.271,136.967 175.200,135.880 175.200 C 135.374 175.200,134.787 175.373,134.577 175.583 C 133.643 176.517,130.243 172.025,130.612 170.344 C 130.768 169.637,130.699 169.200,130.432 169.200 C 130.194 169.200,130.000 169.560,130.000 170.000 C 130.000 171.168,129.520 170.975,128.496 169.395 C 127.999 168.628,127.414 168.000,127.196 168.000 C 126.978 168.000,126.800 167.734,126.800 167.409 C 126.800 167.084,126.361 166.531,125.825 166.180 C 125.289 165.829,124.732 165.002,124.588 164.344 C 124.443 163.685,124.027 163.043,123.662 162.916 C 123.298 162.790,122.205 161.947,121.232 161.043 C 120.260 160.139,119.810 159.855,120.232 160.412 M181.875 195.166 C 181.365 253.370,181.458 257.835,183.200 258.300 C 183.570 258.399,183.640 258.334,183.383 258.130 C 181.908 256.961,181.879 255.799,182.181 210.726 C 182.343 186.678,182.533 166.908,182.605 166.792 C 182.677 166.675,182.604 165.955,182.443 165.190 C 182.282 164.426,182.026 177.915,181.875 195.166 M251.926 165.402 C 251.374 166.614,251.437 166.689,253.160 166.863 C 254.833 167.031,255.156 166.363,253.946 165.236 C 252.789 164.158,252.482 164.183,251.926 165.402 M137.997 181.144 C 138.766 181.801,139.462 182.271,139.545 182.188 C 139.779 181.955,138.689 180.979,137.592 180.438 C 136.855 180.075,136.960 180.256,137.997 181.144 M140.087 180.462 C 140.295 181.085,141.190 181.194,141.221 180.600 C 141.233 180.380,140.942 180.138,140.575 180.062 C 140.158 179.975,139.975 180.125,140.087 180.462 M140.574 184.200 C 141.967 186.252,142.252 186.495,141.477 184.971 C 141.134 184.295,140.549 183.490,140.178 183.182 C 139.807 182.874,139.985 183.332,140.574 184.200 M228.275 184.258 C 227.725 184.808,228.011 185.657,228.700 185.524 C 229.085 185.450,229.400 185.137,229.400 184.828 C 229.400 184.196,228.694 183.839,228.275 184.258 M143.865 187.667 C 144.689 188.510,145.551 189.194,145.781 189.187 C 146.012 189.180,145.885 188.935,145.500 188.643 C 145.115 188.351,144.800 187.839,144.800 187.505 C 144.800 186.739,144.014 186.105,143.084 186.121 C 142.527 186.131,142.701 186.475,143.865 187.667 M183.600 259.016 C 183.600 260.446,187.734 265.173,189.170 265.384 C 189.499 265.432,189.915 266.038,190.094 266.731 C 190.274 267.424,190.956 268.387,191.610 268.871 C 192.265 269.355,192.800 269.955,192.800 270.206 C 192.800 270.456,193.430 271.186,194.200 271.828 C 194.970 272.470,195.600 273.187,195.600 273.422 C 195.600 274.867,199.503 278.187,200.546 277.629 C 201.126 277.319,201.600 276.825,201.600 276.532 C 201.600 276.240,201.839 276.000,202.130 276.000 C 202.422 276.000,203.097 275.518,203.630 274.929 L 204.600 273.858 203.333 274.733 C 202.202 275.513,202.000 275.543,201.461 275.004 C 201.129 274.672,200.484 274.400,200.029 274.400 C 198.955 274.400,198.932 275.605,200.000 275.884 C 200.792 276.091,201.149 277.200,200.423 277.200 C 199.425 277.200,197.256 275.438,196.418 273.947 C 195.903 273.031,194.521 271.312,193.345 270.128 C 192.170 268.943,191.236 267.845,191.269 267.687 C 191.302 267.529,191.113 266.874,190.848 266.231 C 190.584 265.588,190.451 264.844,190.553 264.577 C 190.672 264.267,190.137 263.996,189.070 263.826 C 186.766 263.458,185.753 262.693,184.798 260.596 C 184.072 259.002,183.600 258.379,183.600 259.016 M209.400 267.045 C 207.860 268.685,206.162 270.460,205.627 270.991 C 204.732 271.880,204.107 273.828,204.868 273.358 C 205.051 273.245,205.200 272.938,205.200 272.676 C 205.200 272.414,206.820 270.490,208.800 268.400 C 210.780 266.310,212.400 264.465,212.400 264.300 C 212.400 263.851,212.410 263.842,209.400 267.045 " stroke="none" fill="#f4fcfc" fill-rule="evenodd"></path></g></svg>